<?xml version="1.0" standalone="no"?>
<!DOCTYPE svg PUBLIC "-//W3C//DTD SVG 20010904//EN"
 "http://www.w3.org/TR/2001/REC-SVG-20010904/DTD/svg10.dtd">
<svg version="1.0" xmlns="http://www.w3.org/2000/svg"
 width="923.000000pt" height="923.000000pt" viewBox="0 0 923.000000 923.000000"
 preserveAspectRatio="xMidYMid meet">
<metadata>
Created by potrace 1.14, written by Peter Selinger 2001-2017
</metadata>
<g transform="translate(0.000000,923.000000) scale(0.100000,-0.100000)"
fill="#000000" stroke="none">
<path d="M4358 9225 c-2 -2 -46 -6 -98 -9 -52 -4 -108 -8 -125 -11 -16 -2 -52
-7 -80 -10 -82 -10 -166 -22 -201 -29 -12 -2 -39 -7 -60 -10 -40 -6 -69 -12
-114 -22 -14 -3 -43 -9 -66 -14 -332 -70 -745 -218 -1079 -386 -442 -224 -814
-493 -1165 -844 -229 -228 -316 -328 -471 -540 -107 -147 -249 -361 -249 -376
0 -3 -8 -18 -19 -32 -67 -97 -230 -432 -307 -632 -14 -36 -30 -74 -35 -85 -37
-80 -172 -549 -193 -670 -3 -16 -14 -79 -25 -140 -10 -60 -22 -128 -24 -150
-3 -22 -8 -58 -11 -80 -24 -180 -31 -302 -31 -570 1 -222 10 -458 19 -474 2
-3 6 -38 10 -76 4 -39 9 -84 11 -100 3 -17 7 -43 10 -60 2 -16 7 -47 11 -69 3
-21 7 -46 9 -55 39 -190 57 -271 64 -291 5 -14 17 -56 26 -94 18 -73 99 -323
135 -416 12 -30 27 -71 35 -90 131 -349 412 -830 676 -1157 142 -176 381 -427
540 -568 81 -72 159 -138 183 -154 12 -8 23 -18 26 -21 27 -32 367 -265 505
-346 369 -217 680 -348 1130 -479 54 -16 214 -54 255 -61 14 -3 33 -7 42 -10
31 -9 281 -50 363 -59 28 -4 61 -8 74 -10 150 -26 893 -26 974 0 7 2 41 6 77
10 36 3 108 13 160 21 52 9 109 18 125 21 60 9 213 45 340 78 520 137 1044
384 1485 699 79 56 251 188 276 211 6 5 38 32 70 60 158 133 428 412 564 581
488 609 819 1325 953 2064 56 307 72 489 72 835 0 220 -9 443 -20 504 -1 9 -6
43 -9 76 -14 115 -21 159 -46 291 -203 1067 -775 2026 -1621 2719 -204 167
-506 367 -729 483 -58 30 -114 60 -125 67 -26 16 -290 134 -338 151 -20 7 -52
20 -70 28 -69 31 -402 138 -502 161 -218 50 -350 77 -440 90 -164 23 -165 23
-240 30 -38 4 -83 9 -100 11 -36 6 -622 14 -627 9z"/>
</g>
</svg>
